<?xml version="1.0" encoding="UTF-8"?>
<svg id="Layer_1" data-name="Layer 1" xmlns="http://www.w3.org/2000/svg" viewBox="0 0 512 438.67">
  <defs>
    <style>
      .cls-1 {
        fill: #fff;
      }
    </style>
  </defs>
  <path class="cls-1" d="M492.5,398.81c-4.68,11.21-16.96,21.06-29.46,23.42-136.38,1.77-273.08.23-409.59.78-18.06-1.73-33.61-15.59-36.53-33.61V52.09c2-20.76,19.04-35.12,39.45-36.53h399.27c19.34,1.04,36.07,15.76,39.45,34.78v339.05c-.23,2.74-1.53,6.87-2.59,9.41h0ZM475.78,94.49v-42.38c0-7.94-13.39-18.03-21.31-17.27-133.78.55-267.74-.98-401.42.77-7.19.86-16.82,10.45-16.82,17.67v41.21h439.55ZM475.78,113.78H36.23v273.84c0,1.95,5.55,10.39,7.28,12.01,2.62,2.46,5.42,2.62,8.79,3.49l404.51.02c6.58.05,13.96-4.77,16.87-10.61.33-.66,2.1-5.2,2.1-5.5V113.78Z"/>
  <path class="cls-1" d="M476.78,95.49H35.23v-42.21c0-7.22,9.63-17.81,16.82-18.67,133.68-1.75,269.63-.22,403.42-.77,7.92-.76,21.31,10.33,21.31,18.27,0,0,0,43.38,0,43.38ZM80.14,65.45c0-6.08-4.93-11.01-11.01-11.01s-11.01,4.93-11.01,11.01,4.93,11.01,11.01,11.01,11.01-4.93,11.01-11.01ZM124.46,65.45c0-6.07-4.92-11-11-11s-11,4.92-11,11,4.92,11,11,11,11-4.92,11-11ZM168.96,65.5c0-6.08-4.93-11.01-11.01-11.01s-11.01,4.93-11.01,11.01,4.93,11.01,11.01,11.01,11.01-4.93,11.01-11.01Z"/>
  <path class="cls-1" d="M387.02,214.23c.16.25,1.34.37,1.85.75,18.3,13.78,24.67,34.79,13.94,55.84-.52,1.02-3.44,4.8-3.44,5.16,0,.27,2.17,3.64,2.61,4.82,9.16,24.51-6,52.17-29.53,61.38-2.54.99-9.62,2.25-10.86,3.02-.41.25-1.76,3.16-2.48,4.09-11.2,14.33-23.33,22.16-42.04,23.43-12.04.82-38.74-3.78-40.05-18.97v-201.71c.85-7.56,7.39-10.72,14.37-10.8,11.62-.14,24.18,3.49,33.53,10.3,1.52,1.11,6.89,6.38,7.48,6.55,2.15.62,7.11.36,9.74.78,22.22,3.5,39.98,20.79,44.04,43.05.41,2.28.51,11.79.84,12.31ZM295.75,160.54v76.86c4.29,2.52,9.75,2.59,14.43,4.28,13.09,4.72,22.53,16.72,26.17,29.94,2.42,8.79-3.3,16.09-12.54,12.54-5.12-1.97-6.05-9.49-8.67-14.12-4.62-8.16-10.27-10.92-19.39-12.47v92.06c16.29,7.72,37.96,4.13,48.06-11.56,2.78-4.32,2.38-5.66-1.59-9.17-6.12-5.41-10.94-3.78-16.7-6.71-7.07-3.6-5.98-15.14,1.19-17,13.05-3.4,29.52,8.94,36.02,19.52,16-4.71,27.03-20.59,21.54-37.3-1.67-5.08-5.03-10.08-10.22-12-4.72-1.74-12.03-.91-13.29-7.75-2.9-15.72,17.83-11.94,26.15-7.17,4.27-10.39.86-22.4-7.9-29.21-6.13-4.77-8.54-1.17-13.66-3.87-5.35-2.82-6.52-10.12-2.39-14.55,3.25-3.48,5.4-1.37,4.6-8.12-1.38-11.77-13.64-23.63-25.06-26.07,1.42,5.68.94,11.48,1.14,17.27.21,6.12,2.48,14.86-2.59,19.57-6.03,5.6-14.15,1.39-15.36-6.29-1.17-7.41-.14-16.98-1.38-24.92-2.16-13.85-15.24-22.56-28.57-23.74v-.02Z"/>
  <path class="cls-1" d="M257.9,353.59c-4.72,6.74-11.94,10.5-19.24,11.09-24.9,2.05-51.7-1.53-76.81.02-11.65-1.29-20.74-11.24-23.77-24.45-1.53-53.4-.24-107.12-.66-160.64,1.37-16.48,11.81-29,25.8-30.19,24.82-2.12,51.76,1.62,76.8.03,11.92,1.21,22.63,13.26,24.03,27.42v159.84c-.65,6.29-2.76,12.03-6.15,16.88h0ZM161.99,167.52c-5.65,1.6-8.65,5.12-9.49,12.09l-.02,153.31c.06,7.35,4.17,12.9,10.3,13.84,26.13-.46,52.48.91,78.49-.7,4.47-1.79,7.45-6.41,7.68-12.05v-154.96c-.66-6.23-4.82-10.5-9.83-11.67l-77.15.14h0Z"/>
  <path class="cls-1" d="M225.05,208.72c0,13.39-10.85,24.24-24.24,24.24s-24.24-10.85-24.24-24.24,10.85-24.24,24.24-24.24,24.24,10.85,24.24,24.24ZM207.41,208.95c0-3.55-2.88-6.43-6.43-6.43s-6.43,2.88-6.43,6.43,2.88,6.43,6.43,6.43,6.43-2.88,6.43-6.43Z"/>
</svg>
